<svg width="69" height="23" viewBox="0 0 69 23" fill="none" xmlns="http://www.w3.org/2000/svg">
<g clip-path="url(#clip0_1_453)">
<path d="M0.5 0.5H15.2156V7.78567H7.8578L0.5 0.5ZM0.5 7.78567H7.8578L15.2156 15.0713H0.5V7.78567ZM0.5 15.0713H7.8578V22.357L0.5 15.0713Z" fill="white"/>
<path d="M23.5187 6.24805H29.467V8.11971H25.7701V10.7207H29.467V12.551H25.7701V15.8814H23.5187V6.24805ZM30.69 9.24805H32.8165V10.638C32.9276 10.1604 33.1548 9.79371 33.4975 9.53705C33.849 9.27071 34.2391 9.13805 34.665 9.13805C34.8875 9.13805 35.073 9.15671 35.2207 9.19305V11.1474C35.0087 11.122 34.7952 11.1084 34.5815 11.106C33.9977 11.106 33.5581 11.2937 33.2612 11.67C32.9653 12.037 32.8165 12.5874 32.8165 13.3217V15.8814H30.691V9.24805H30.69ZM38.5776 16.0604C37.9293 16.0604 37.3637 15.9087 36.882 15.606C36.4094 15.3034 36.0337 14.8737 35.7981 14.3674C35.5479 13.8357 35.422 13.234 35.422 12.5647C35.422 11.904 35.5527 11.3074 35.8119 10.7757C36.0549 10.262 36.4407 9.82771 36.9238 9.52338C37.4142 9.22071 37.9751 9.06905 38.6056 9.06905C39.0779 9.06905 39.5 9.17038 39.8703 9.37205C40.2406 9.57438 40.5187 9.84971 40.7042 10.1977V9.24805H42.8165V15.8814H40.7042V14.9454C40.5187 15.2757 40.2315 15.546 39.8424 15.7574C39.4532 15.9617 39.0183 16.0657 38.5776 16.0604ZM39.1893 14.3124C39.6986 14.3124 40.0925 14.1474 40.3706 13.817C40.6486 13.4867 40.7877 13.069 40.7877 12.5647C40.7877 12.0694 40.6486 11.6564 40.3706 11.326C40.0925 10.9957 39.6986 10.8307 39.1893 10.8307C38.7069 10.8307 38.3184 10.991 38.0219 11.3124C37.7347 11.6337 37.591 12.0507 37.591 12.5647C37.591 13.0787 37.7347 13.5004 38.0219 13.8307C38.3184 14.152 38.7076 14.3124 39.1893 14.3124ZM44.3038 9.24805H46.4303V10.2114C46.5791 9.87138 46.8195 9.59605 47.1527 9.38571C47.4961 9.17538 47.8943 9.06905 48.3481 9.06905C49.4045 9.06905 50.1043 9.47705 50.4467 10.294C50.6352 9.92371 50.9301 9.61738 51.2947 9.41338C51.6845 9.18105 52.1322 9.06205 52.587 9.06905C54.1715 9.06905 54.9636 9.96771 54.9636 11.7664V15.8814H52.8233V12.1517C52.8233 11.7027 52.7398 11.3724 52.5732 11.161C52.4062 10.9504 52.1561 10.8444 51.8225 10.8444C51.4613 10.8444 51.1832 10.9684 50.9887 11.216C50.7941 11.4547 50.6968 11.8717 50.6968 12.4684V15.8814H48.5565V12.138C48.5565 11.6887 48.4733 11.3627 48.3064 11.161C48.1495 10.9504 47.9034 10.8444 47.5705 10.8444C47.1995 10.8444 46.9167 10.9684 46.7222 11.216C46.5276 11.4547 46.4303 11.8717 46.4303 12.4684V15.8814H44.3045V9.24805H44.3038ZM62.9519 12.2207C62.9519 12.5047 62.9331 12.8124 62.8954 13.1427H57.9486C57.9674 13.574 58.1152 13.9037 58.3933 14.1337C58.6713 14.3627 59.0473 14.4777 59.519 14.4777C60.1771 14.4777 60.5942 14.28 60.7699 13.8857H62.8547C62.7523 14.5374 62.3911 15.0644 61.7704 15.4684C61.159 15.8627 60.4083 16.0604 59.519 16.0604C58.3704 16.0604 57.4668 15.7527 56.8087 15.138C56.1604 14.523 55.8359 13.6657 55.8359 12.5647C55.8359 11.849 55.984 11.2297 56.2805 10.7067C56.567 10.1844 57.0087 9.76171 57.5453 9.49571C58.0923 9.21171 58.7269 9.06905 59.4503 9.06905C60.1353 9.06905 60.7419 9.20205 61.2701 9.46838C61.8074 9.73471 62.2201 10.106 62.5069 10.583C62.8038 11.0607 62.9519 11.6064 62.9519 12.2207ZM60.8524 11.8354C60.8433 11.395 60.7184 11.0597 60.477 10.8307C60.2367 10.6017 59.8886 10.4867 59.4348 10.4867C58.981 10.4867 58.6198 10.6104 58.3508 10.8584C58.0916 11.097 57.9573 11.4224 57.9476 11.8354H60.8524ZM63.8895 9.24805H66.016V10.638C66.1271 10.1604 66.3543 9.79371 66.697 9.53705C67.0296 9.27771 67.441 9.13705 67.8644 9.13805C68.0866 9.13805 68.2724 9.15671 68.4202 9.19305V11.1474C68.2081 11.122 67.9947 11.1084 67.781 11.106C67.1972 11.106 66.7576 11.2937 66.4607 11.67C66.1638 12.037 66.016 12.5874 66.016 13.3217V15.8814H63.8895V9.24805Z" fill="white"/>
</g>
<defs>
<clipPath id="clip0_1_453">
<rect width="68" height="22" fill="white" transform="translate(0.5 0.5)"/>
</clipPath>
</defs>
</svg>
