<svg width="17" height="16" viewBox="0 0 17 16" fill="none" xmlns="http://www.w3.org/2000/svg">
<path d="M13.3245 8.42537L9.7245 12.0254C9.61178 12.1381 9.45891 12.2014 9.2995 12.2014C9.14009 12.2014 8.98722 12.1381 8.8745 12.0254C8.76178 11.9127 8.69846 11.7598 8.69846 11.6004C8.69846 11.441 8.76178 11.2881 8.8745 11.1754L11.45 8.60087H4.1C3.94087 8.60087 3.78826 8.53765 3.67574 8.42513C3.56321 8.31261 3.5 8.16 3.5 8.00087C3.5 7.84174 3.56321 7.68913 3.67574 7.5766C3.78826 7.46408 3.94087 7.40087 4.1 7.40087H11.45L8.8755 4.82487C8.76278 4.71215 8.69946 4.55927 8.69946 4.39987C8.69946 4.24046 8.76278 4.08759 8.8755 3.97487C8.98822 3.86215 9.14109 3.79883 9.3005 3.79883C9.45991 3.79883 9.61278 3.86215 9.7255 3.97487L13.3255 7.57487C13.3814 7.63069 13.4258 7.69701 13.4561 7.77002C13.4863 7.84303 13.5018 7.9213 13.5017 8.00033C13.5016 8.07935 13.4859 8.15759 13.4555 8.23053C13.4251 8.30347 13.3806 8.36968 13.3245 8.42537Z" fill="black"/>
</svg>
