<svg width="24" height="24" viewBox="0 0 24 24" fill="none" xmlns="http://www.w3.org/2000/svg">
<path d="M17.631 7.13695C17.514 7.07795 17.401 7.01295 17.29 6.94195C16.97 6.73395 16.676 6.48895 16.415 6.21195C15.763 5.47895 15.519 4.73495 15.429 4.21395H15.433C15.358 3.78095 15.389 3.50195 15.394 3.50195H12.421V14.791C12.421 14.943 12.421 15.093 12.415 15.241C12.415 15.259 12.413 15.276 12.412 15.296C12.412 15.304 12.412 15.312 12.41 15.321V15.327C12.346 16.15 11.87 16.887 11.14 17.295C10.765 17.504 10.342 17.614 9.90997 17.614C8.52597 17.614 7.40297 16.504 7.40297 15.135C7.40297 13.765 8.52597 12.656 9.90997 12.656C10.173 12.655 10.433 12.696 10.682 12.776L10.686 9.80295C9.15597 9.60895 7.61397 10.052 6.43197 11.025C5.91897 11.463 5.48897 11.984 5.15897 12.567C5.03297 12.78 4.55997 13.633 4.50297 15.019C4.46697 15.806 4.70697 16.621 4.82197 16.957V16.965C4.89397 17.163 5.17297 17.84 5.62897 18.41C5.99597 18.868 6.42997 19.27 6.91597 19.603V19.596L6.92297 19.603C8.36197 20.564 9.95797 20.501 9.95797 20.501C10.234 20.49 11.159 20.501 12.21 20.012C13.375 19.469 14.038 18.662 14.038 18.662C14.462 18.179 14.799 17.629 15.035 17.035C15.304 16.341 15.394 15.508 15.394 15.175V9.18495C15.43 9.20695 15.91 9.51895 15.91 9.51895C15.91 9.51895 16.602 9.95395 17.681 10.238C18.456 10.44 19.499 10.482 19.499 10.482V7.58395C19.133 7.62295 18.391 7.50895 17.631 7.13695Z" fill="white" fill-opacity="0.5"/>
</svg>
